# xmcd
#
# Track frame offsets:
#	187
#	11563
#	28640
#	42115
#	62206
#	77591
#	91742
#	98756
#	124819
#	136650
#	149454
#	166915
#	186075
#	226726
#	241531
#	256240
#
# Disc length: 3693 seconds
#
# Revision: 4
# Processed by: cddbd v1.5.1PL0 Copyright (c) Steve Scherf et al.
# Submitted via: audiograbber 1.81.02
#
DISCID=bc0e6b10
DTITLE=Chaozz - Zprdeleklika
DYEAR=1997
DGENRE=Hip-Hop
TTITLE0=Fstup
TTITLE1=Cim Dal Tim Stejne  (Odkud Sem)
TTITLE2=Chaozz Veci
TTITLE3=Hej Lidi
TTITLE4=Z Klece Do Hrobu
TTITLE5=Zpomal !
TTITLE6=7  Cili 7 Tahu
TTITLE7=Z Prdele Klika
TTITLE8=Zeleny  Peklo
TTITLE9=Sobotage Aneb Ooo Ruziko Vonava
TTITLE10=Vsude Dobre
TTITLE11=Sny A Realita
TTITLE12=9 Minut Poezie
TTITLE13=Vystup
TTITLE14=Sorry (Dj Bass Phunkky Mixx)
TTITLE15=Brana
EXTD=YEAR: 1997
EXTT0=
EXTT1=
EXTT2=
EXTT3=
EXTT4=
EXTT5=
EXTT6=
EXTT7=
EXTT8=
EXTT9=
EXTT10=
EXTT11=
EXTT12=
EXTT13=
EXTT14=
EXTT15=
PLAYORDER=
